<svg id="Layer_1" data-name="Layer 1" xmlns="http://www.w3.org/2000/svg" viewBox="0 0 211.38 43.76"><defs><style>.cls-1{fill:#231f20;}</style></defs><path class="cls-1" d="M39.2,65.16a4.29,4.29,0,0,1-1.05-3.11V56.68H39.5V62c0,2,.88,3,2.66,3a2.56,2.56,0,0,0,2-.75A3.3,3.3,0,0,0,44.83,62V56.68h1.31v5.37a4.3,4.3,0,0,1-1,3.12,4,4,0,0,1-3,1.07A3.91,3.91,0,0,1,39.2,65.16Z" transform="translate(-36.86 -25.07)"/><path class="cls-1" d="M48.91,56.68h1.35v9.45H48.91Z" transform="translate(-36.86 -25.07)"/><path class="cls-1" d="M56.73,56.68h4a5.89,5.89,0,0,1,2.67.59,4.4,4.4,0,0,1,1.8,1.67,5.07,5.07,0,0,1,0,4.93,4.47,4.47,0,0,1-1.8,1.67,5.89,5.89,0,0,1-2.67.59h-4ZM60.63,65a4.33,4.33,0,0,0,2-.45A3.26,3.26,0,0,0,64,63.26a3.9,3.9,0,0,0,0-3.71,3.26,3.26,0,0,0-1.35-1.25,4.33,4.33,0,0,0-2-.45H58.08V65Z" transform="translate(-36.86 -25.07)"/><path class="cls-1" d="M74.14,63H68.33a2.25,2.25,0,0,0,.83,1.52A2.93,2.93,0,0,0,73,64.21l.72.84a3.21,3.21,0,0,1-1.21.87,4.37,4.37,0,0,1-1.62.29,4.25,4.25,0,0,1-2-.46,3.37,3.37,0,0,1-1.36-1.31A3.73,3.73,0,0,1,67,62.55a3.82,3.82,0,0,1,.46-1.88,3.4,3.4,0,0,1,1.28-1.3,3.68,3.68,0,0,1,1.85-.46,3.61,3.61,0,0,1,1.83.46,3.33,3.33,0,0,1,1.25,1.3,3.9,3.9,0,0,1,.46,1.92A3.28,3.28,0,0,1,74.14,63Zm-5.07-2.41a2.25,2.25,0,0,0-.74,1.48h4.59a2.31,2.31,0,0,0-.73-1.48,2.42,2.42,0,0,0-3.12,0Z" transform="translate(-36.86 -25.07)"/><path class="cls-1" d="M76.33,66a3.76,3.76,0,0,1-1.27-.6l.54-1a4.09,4.09,0,0,0,1.15.54,4.87,4.87,0,0,0,1.36.2c1.13,0,1.7-.32,1.7-1a.62.62,0,0,0-.23-.51,1.39,1.39,0,0,0-.57-.28c-.23-.06-.56-.12-1-.2a9,9,0,0,1-1.41-.31,2.07,2.07,0,0,1-.94-.59,1.66,1.66,0,0,1-.39-1.18,1.83,1.83,0,0,1,.81-1.56,3.62,3.62,0,0,1,2.17-.58,5.77,5.77,0,0,1,1.43.17,4.2,4.2,0,0,1,1.18.47l-.56,1A3.68,3.68,0,0,0,78.26,60a2.41,2.41,0,0,0-1.26.27.81.81,0,0,0-.43.72.68.68,0,0,0,.24.55,1.54,1.54,0,0,0,.6.3l1,.22a11.82,11.82,0,0,1,1.4.31,2.19,2.19,0,0,1,.91.58,1.61,1.61,0,0,1,.38,1.13,1.8,1.8,0,0,1-.83,1.55,4,4,0,0,1-2.26.57A6.27,6.27,0,0,1,76.33,66Z" transform="translate(-36.86 -25.07)"/><path class="cls-1" d="M82.75,57.35a.83.83,0,0,1,0-1.19.84.84,0,0,1,.63-.25.92.92,0,0,1,.63.23.82.82,0,0,1,.25.59.85.85,0,0,1-.88.87A.88.88,0,0,1,82.75,57.35Zm0,1.62H84v7.16h-1.3Z" transform="translate(-36.86 -25.07)"/><path class="cls-1" d="M93.34,59v6.19a3.68,3.68,0,0,1-.93,2.77,3.86,3.86,0,0,1-2.78.9,6.82,6.82,0,0,1-1.93-.27,4,4,0,0,1-1.49-.79l.62-1a4,4,0,0,0,1.24.68,4.89,4.89,0,0,0,1.52.25,2.54,2.54,0,0,0,1.86-.6,2.44,2.44,0,0,0,.6-1.81v-.56a2.92,2.92,0,0,1-1.13.83,3.86,3.86,0,0,1-1.45.27,4,4,0,0,1-1.86-.43,3.35,3.35,0,0,1-1.3-1.23,3.7,3.7,0,0,1,0-3.61,3.19,3.19,0,0,1,1.3-1.22,4,4,0,0,1,1.86-.43,3.72,3.72,0,0,1,1.5.29,2.8,2.8,0,0,1,1.15.88V59ZM90.88,64.4a2.2,2.2,0,0,0,.88-.83,2.33,2.33,0,0,0,.32-1.21,2.19,2.19,0,0,0-.69-1.68A2.49,2.49,0,0,0,89.62,60a2.52,2.52,0,0,0-1.79.64,2.22,2.22,0,0,0-.68,1.68,2.32,2.32,0,0,0,.31,1.21,2.2,2.2,0,0,0,.88.83,2.84,2.84,0,0,0,2.54,0Z" transform="translate(-36.86 -25.07)"/><path class="cls-1" d="M101.81,59.7a3.1,3.1,0,0,1,.8,2.31v4.12h-1.3v-4a2.18,2.18,0,0,0-.5-1.57,1.87,1.87,0,0,0-1.43-.52,2.22,2.22,0,0,0-1.66.61,2.38,2.38,0,0,0-.61,1.76v3.69H95.82V59h1.24v1.08a2.49,2.49,0,0,1,1.06-.85,3.65,3.65,0,0,1,1.52-.29A3,3,0,0,1,101.81,59.7Z" transform="translate(-36.86 -25.07)"/><path class="cls-1" d="M111.5,63h-5.81a2.25,2.25,0,0,0,.83,1.52,2.93,2.93,0,0,0,3.83-.29l.71.84a3.06,3.06,0,0,1-1.21.87,4.32,4.32,0,0,1-1.61.29,4.2,4.2,0,0,1-2-.46,3.3,3.3,0,0,1-1.36-1.31,3.74,3.74,0,0,1-.48-1.89,3.83,3.83,0,0,1,.47-1.88,3.4,3.4,0,0,1,1.28-1.3,3.67,3.67,0,0,1,1.84-.46,3.55,3.55,0,0,1,1.83.46,3.28,3.28,0,0,1,1.26,1.3,4,4,0,0,1,.45,1.92C111.52,62.69,111.51,62.82,111.5,63Zm-5.08-2.41a2.28,2.28,0,0,0-.73,1.48h4.59a2.32,2.32,0,0,0-.74-1.48A2.21,2.21,0,0,0,108,60,2.24,2.24,0,0,0,106.42,60.57Z" transform="translate(-36.86 -25.07)"/><path class="cls-1" d="M115.56,59.23a3.59,3.59,0,0,1,1.61-.32v1.25h-.3a2.17,2.17,0,0,0-1.65.63,2.47,2.47,0,0,0-.6,1.79v3.56h-1.3V59h1.24v1.21A2.24,2.24,0,0,1,115.56,59.23Z" transform="translate(-36.86 -25.07)"/><path class="cls-1" d="M122.68,56.11h1.2V68.75h-1.2Z" transform="translate(-36.86 -25.07)"/><path class="cls-1" d="M136.9,61.35h1.3V65a5.29,5.29,0,0,1-1.64.89,6,6,0,0,1-1.94.31,5.24,5.24,0,0,1-2.58-.63,4.54,4.54,0,0,1-1.8-1.73,4.72,4.72,0,0,1-.66-2.48,4.77,4.77,0,0,1,.66-2.48,4.5,4.5,0,0,1,1.81-1.73,5.4,5.4,0,0,1,2.6-.62,5.47,5.47,0,0,1,2.06.37A4.23,4.23,0,0,1,138.28,58l-.84.84a3.81,3.81,0,0,0-2.74-1.1,4,4,0,0,0-1.94.47,3.4,3.4,0,0,0-1.34,1.29,3.6,3.6,0,0,0-.49,1.87,3.54,3.54,0,0,0,.49,1.86,3.42,3.42,0,0,0,1.34,1.3,3.86,3.86,0,0,0,1.93.48,4,4,0,0,0,2.21-.61Z" transform="translate(-36.86 -25.07)"/><path class="cls-1" d="M142.83,59.23a3.59,3.59,0,0,1,1.61-.32v1.25h-.3a2.21,2.21,0,0,0-1.66.63,2.47,2.47,0,0,0-.6,1.79v3.56h-1.29V59h1.24v1.21A2.24,2.24,0,0,1,142.83,59.23Z" transform="translate(-36.86 -25.07)"/><path class="cls-1" d="M150.9,59.63a2.86,2.86,0,0,1,.79,2.18v4.32h-1.23v-.94a2.13,2.13,0,0,1-.93.76,3.6,3.6,0,0,1-1.42.26,3,3,0,0,1-1.93-.58,2,2,0,0,1,0-3,3.36,3.36,0,0,1,2.19-.58h2v-.25a1.68,1.68,0,0,0-.48-1.29,2.12,2.12,0,0,0-1.44-.44,3.8,3.8,0,0,0-1.24.21,3,3,0,0,0-1,.56l-.54-1a4,4,0,0,1,1.32-.68,5.44,5.44,0,0,1,1.63-.23A3.28,3.28,0,0,1,150.9,59.63Zm-1.29,5.25a1.86,1.86,0,0,0,.78-.94v-1h-2c-1.1,0-1.64.37-1.64,1.11a1,1,0,0,0,.41.85,1.91,1.91,0,0,0,1.17.31A2.41,2.41,0,0,0,149.61,64.88Z" transform="translate(-36.86 -25.07)"/><path class="cls-1" d="M159.75,59.36A3.33,3.33,0,0,1,161,60.65a3.8,3.8,0,0,1,.47,1.9,3.83,3.83,0,0,1-.47,1.91,3.2,3.2,0,0,1-1.29,1.29,3.72,3.72,0,0,1-1.86.46,3.42,3.42,0,0,1-1.41-.29,3,3,0,0,1-1.09-.87v3.7h-1.3V59h1.24v1.14a2.74,2.74,0,0,1,1.1-.9,3.5,3.5,0,0,1,1.46-.3A3.82,3.82,0,0,1,159.75,59.36Zm-.73,5.4a2.3,2.3,0,0,0,.86-.89,2.86,2.86,0,0,0,0-2.63,2.23,2.23,0,0,0-.86-.89,2.46,2.46,0,0,0-1.24-.31,2.39,2.39,0,0,0-1.22.32,2.23,2.23,0,0,0-.87.88,2.94,2.94,0,0,0,0,2.63,2.17,2.17,0,0,0,.86.89,2.54,2.54,0,0,0,2.47,0Z" transform="translate(-36.86 -25.07)"/><path class="cls-1" d="M169.29,59.7A3.06,3.06,0,0,1,170.1,62v4.12h-1.3v-4a2.22,2.22,0,0,0-.5-1.57,1.87,1.87,0,0,0-1.43-.52,2.22,2.22,0,0,0-1.66.61,2.38,2.38,0,0,0-.61,1.76v3.69h-1.3v-10h1.3V60a2.6,2.6,0,0,1,1.06-.8,3.67,3.67,0,0,1,1.47-.28A2.92,2.92,0,0,1,169.29,59.7Z" transform="translate(-36.86 -25.07)"/><path class="cls-1" d="M172.52,57.35a.83.83,0,0,1,0-1.19.85.85,0,0,1,.63-.25.92.92,0,0,1,.63.23.82.82,0,0,1,.25.59.89.89,0,0,1-1.51.62Zm0,1.62h1.3v7.16h-1.3Z" transform="translate(-36.86 -25.07)"/><path class="cls-1" d="M177.44,65.74a3.59,3.59,0,0,1-1.35-1.3,3.74,3.74,0,0,1-.48-1.89,3.68,3.68,0,0,1,.48-1.88,3.44,3.44,0,0,1,1.35-1.3,4,4,0,0,1,1.95-.46,3.71,3.71,0,0,1,1.73.39,2.82,2.82,0,0,1,1.19,1.13l-1,.64a2.06,2.06,0,0,0-.84-.77,2.38,2.38,0,0,0-1.1-.26,2.57,2.57,0,0,0-1.27.31,2.19,2.19,0,0,0-.87.89,2.88,2.88,0,0,0,0,2.64,2.19,2.19,0,0,0,.87.89,2.68,2.68,0,0,0,1.27.31,2.38,2.38,0,0,0,1.1-.26,2.14,2.14,0,0,0,.84-.77l1,.62a2.79,2.79,0,0,1-1.19,1.14,3.59,3.59,0,0,1-1.73.4A3.91,3.91,0,0,1,177.44,65.74Z" transform="translate(-36.86 -25.07)"/><path class="cls-1" d="M187.8,56.68h4a5.85,5.85,0,0,1,2.66.59,4.4,4.4,0,0,1,1.8,1.67,5.07,5.07,0,0,1,0,4.93,4.47,4.47,0,0,1-1.8,1.67,5.85,5.85,0,0,1-2.66.59h-4ZM191.71,65a4.39,4.39,0,0,0,2-.45,3.24,3.24,0,0,0,1.34-1.25,3.9,3.9,0,0,0,0-3.71,3.24,3.24,0,0,0-1.34-1.25,4.39,4.39,0,0,0-2-.45h-2.56V65Z" transform="translate(-36.86 -25.07)"/><path class="cls-1" d="M205.21,63H199.4a2.26,2.26,0,0,0,.84,1.52,2.67,2.67,0,0,0,1.76.58,2.64,2.64,0,0,0,2.06-.87l.72.84a3.13,3.13,0,0,1-1.21.87,4.35,4.35,0,0,1-1.61.29,4.2,4.2,0,0,1-2-.46,3.3,3.3,0,0,1-1.36-1.31,3.74,3.74,0,0,1-.48-1.89,3.82,3.82,0,0,1,.46-1.88,3.36,3.36,0,0,1,1.29-1.3,3.64,3.64,0,0,1,1.84-.46,3.58,3.58,0,0,1,1.83.46,3.28,3.28,0,0,1,1.26,1.3,4,4,0,0,1,.45,1.92A3.28,3.28,0,0,1,205.21,63Zm-5.07-2.41a2.29,2.29,0,0,0-.74,1.48H204a2.37,2.37,0,0,0-.74-1.48,2.42,2.42,0,0,0-3.12,0Z" transform="translate(-36.86 -25.07)"/><path class="cls-1" d="M207.4,66a3.85,3.85,0,0,1-1.27-.6l.54-1a4.23,4.23,0,0,0,1.15.54,4.87,4.87,0,0,0,1.36.2c1.14,0,1.7-.32,1.7-1a.61.61,0,0,0-.22-.51,1.49,1.49,0,0,0-.58-.28c-.23-.06-.55-.12-1-.2a9.25,9.25,0,0,1-1.41-.31,2.12,2.12,0,0,1-.94-.59,1.66,1.66,0,0,1-.39-1.18,1.83,1.83,0,0,1,.81-1.56,3.65,3.65,0,0,1,2.17-.58,5.9,5.9,0,0,1,1.44.17,4.13,4.13,0,0,1,1.17.47l-.55,1a3.74,3.74,0,0,0-2.07-.57,2.34,2.34,0,0,0-1.25.27.82.82,0,0,0-.44.72.66.66,0,0,0,.25.55,1.42,1.42,0,0,0,.6.3l1,.22a11.38,11.38,0,0,1,1.4.31,2.13,2.13,0,0,1,.91.58,1.61,1.61,0,0,1,.38,1.13,1.8,1.8,0,0,1-.83,1.55,3.94,3.94,0,0,1-2.26.57A6.27,6.27,0,0,1,207.4,66Z" transform="translate(-36.86 -25.07)"/><path class="cls-1" d="M213.82,57.35a.83.83,0,0,1,0-1.19.85.85,0,0,1,.63-.25.92.92,0,0,1,.63.23.78.78,0,0,1,.25.59.84.84,0,0,1-.25.62.92.92,0,0,1-1.26,0Zm0,1.62h1.3v7.16h-1.3Z" transform="translate(-36.86 -25.07)"/><path class="cls-1" d="M224.42,59v6.19a3.68,3.68,0,0,1-.93,2.77,3.88,3.88,0,0,1-2.79.9,6.82,6.82,0,0,1-1.93-.27,3.93,3.93,0,0,1-1.48-.79l.62-1a3.82,3.82,0,0,0,1.23.68,4.89,4.89,0,0,0,1.52.25,2.54,2.54,0,0,0,1.86-.6,2.44,2.44,0,0,0,.6-1.81v-.56a2.92,2.92,0,0,1-1.13.83,3.82,3.82,0,0,1-1.45.27,4,4,0,0,1-1.86-.43,3.42,3.42,0,0,1-1.3-1.23,3.7,3.7,0,0,1,0-3.61,3.25,3.25,0,0,1,1.3-1.22,4,4,0,0,1,1.86-.43,3.8,3.8,0,0,1,1.51.29,2.83,2.83,0,0,1,1.14.88V59ZM222,64.4a2.14,2.14,0,0,0,.88-.83,2.33,2.33,0,0,0,.32-1.21,2.19,2.19,0,0,0-.69-1.68,2.78,2.78,0,0,0-3.55,0,2.19,2.19,0,0,0-.69,1.68,2.24,2.24,0,0,0,.32,1.21,2.17,2.17,0,0,0,.87.83,2.69,2.69,0,0,0,1.28.3A2.61,2.61,0,0,0,222,64.4Z" transform="translate(-36.86 -25.07)"/><path class="cls-1" d="M232.88,59.7a3.1,3.1,0,0,1,.8,2.31v4.12h-1.29v-4a2.22,2.22,0,0,0-.5-1.57,1.9,1.9,0,0,0-1.44-.52,2.24,2.24,0,0,0-1.66.61,2.42,2.42,0,0,0-.6,1.76v3.69h-1.3V59h1.24v1.08a2.55,2.55,0,0,1,1.06-.85,3.68,3.68,0,0,1,1.52-.29A3,3,0,0,1,232.88,59.7Z" transform="translate(-36.86 -25.07)"/><path class="cls-1" d="M242.57,63h-5.81a2.25,2.25,0,0,0,.83,1.52,2.93,2.93,0,0,0,3.83-.29l.72.84a3.21,3.21,0,0,1-1.21.87,4.37,4.37,0,0,1-1.62.29,4.25,4.25,0,0,1-2-.46,3.37,3.37,0,0,1-1.36-1.31,3.74,3.74,0,0,1-.48-1.89,3.83,3.83,0,0,1,.47-1.88,3.4,3.4,0,0,1,1.28-1.3,3.68,3.68,0,0,1,1.85-.46,3.61,3.61,0,0,1,1.83.46,3.33,3.33,0,0,1,1.25,1.3,4,4,0,0,1,.46,1.92A3.28,3.28,0,0,1,242.57,63Zm-5.07-2.41a2.25,2.25,0,0,0-.74,1.48h4.59a2.31,2.31,0,0,0-.73-1.48,2.42,2.42,0,0,0-3.12,0Z" transform="translate(-36.86 -25.07)"/><path class="cls-1" d="M246.63,59.23a3.61,3.61,0,0,1,1.61-.32v1.25h-.3a2.17,2.17,0,0,0-1.65.63,2.47,2.47,0,0,0-.6,1.79v3.56h-1.3V59h1.24v1.21A2.24,2.24,0,0,1,246.63,59.23Z" transform="translate(-36.86 -25.07)"/><path class="cls-1" d="M36.86,25.43h11A15.76,15.76,0,0,1,55,27a11.56,11.56,0,0,1,4.84,4.41A12.5,12.5,0,0,1,61.53,38a12.47,12.47,0,0,1-1.72,6.58A11.56,11.56,0,0,1,55,49a15.76,15.76,0,0,1-7.14,1.56h-11ZM47.62,46.59a10.6,10.6,0,0,0,4.86-1.06,7.5,7.5,0,0,0,3.22-3A8.81,8.81,0,0,0,56.83,38a8.82,8.82,0,0,0-1.13-4.54,7.56,7.56,0,0,0-3.22-3,10.6,10.6,0,0,0-4.86-1.06h-6.1V46.59Z" transform="translate(-36.86 -25.07)"/><path class="cls-1" d="M82.4,44.73H69.85l-2.47,5.81H62.57l11.3-25.11h4.59L89.79,50.54H84.91Zm-1.54-3.66-4.73-11-4.7,11Z" transform="translate(-36.86 -25.07)"/><path class="cls-1" d="M114.61,25.43,103.67,50.54H99.08l-11-25.11h5l8.36,19.37L110,25.43Z" transform="translate(-36.86 -25.07)"/><path class="cls-1" d="M117.26,25.43h4.66V50.54h-4.66Z" transform="translate(-36.86 -25.07)"/><path class="cls-1" d="M128.7,25.43h11A15.74,15.74,0,0,1,146.81,27a11.5,11.5,0,0,1,4.84,4.41A12.51,12.51,0,0,1,153.38,38a12.47,12.47,0,0,1-1.73,6.58A11.5,11.5,0,0,1,146.81,49a15.74,15.74,0,0,1-7.13,1.56h-11Zm10.76,21.16a10.6,10.6,0,0,0,4.86-1.06,7.53,7.53,0,0,0,3.23-3,9.67,9.67,0,0,0,0-9.07,7.59,7.59,0,0,0-3.23-3,10.6,10.6,0,0,0-4.86-1.06h-6.1V46.59Z" transform="translate(-36.86 -25.07)"/><path class="cls-1" d="M184.65,50.54l-5.13-7.35c-.22,0-.54,0-1,0h-5.67v7.32h-4.66V25.43h10.33a13.8,13.8,0,0,1,5.68,1.08A8.25,8.25,0,0,1,188,29.59a8.64,8.64,0,0,1,1.29,4.77,8.51,8.51,0,0,1-1.38,4.88,8.21,8.21,0,0,1-4,3l5.78,8.25ZM183,30.67a7.16,7.16,0,0,0-4.63-1.29h-5.45v10h5.45a7.1,7.1,0,0,0,4.63-1.3,4.58,4.58,0,0,0,1.58-3.72A4.5,4.5,0,0,0,183,30.67Z" transform="translate(-36.86 -25.07)"/><path class="cls-1" d="M199.24,49.23a12.39,12.39,0,0,1-4.84-4.63,13.31,13.31,0,0,1,0-13.23,12.39,12.39,0,0,1,4.84-4.63,15.19,15.19,0,0,1,13.85,0,12.41,12.41,0,0,1,4.84,4.61A12.69,12.69,0,0,1,219.68,38a12.68,12.68,0,0,1-1.75,6.63,12.41,12.41,0,0,1-4.84,4.61,15.19,15.19,0,0,1-13.85,0Zm11.44-3.55a8.27,8.27,0,0,0,3.16-3.16,9.52,9.52,0,0,0,0-9.07,8.27,8.27,0,0,0-3.16-3.16,9.59,9.59,0,0,0-9,0,8.2,8.2,0,0,0-3.16,3.16,9.52,9.52,0,0,0,0,9.07,8.2,8.2,0,0,0,3.16,3.16,9.59,9.59,0,0,0,9,0Z" transform="translate(-36.86 -25.07)"/><path class="cls-1" d="M240.56,44.73H228l-2.47,5.81h-4.81L232,25.43h4.59l11.33,25.11h-4.87ZM239,41.07l-4.73-11-4.7,11Z" transform="translate(-36.86 -25.07)"/></svg>